<svg width="20" height="20" viewBox="0 0 20 20" fill="none" xmlns="http://www.w3.org/2000/svg">
<rect x="6" y="8" width="8" height="8" fill="#FFF6E1"/>
<path d="M0.963088 19C0.784461 19 0.622072 18.9542 0.475923 18.8625C0.329773 18.7708 0.216101 18.65 0.134907 18.5C0.0537131 18.35 0.00905627 18.1875 0.000936856 18.0125C-0.00718256 17.8375 0.0374742 17.6667 0.134907 17.5L9.14746 1.5C9.24489 1.33333 9.37074 1.20833 9.52501 1.125C9.67928 1.04167 9.83761 1 10 1C10.1624 1 10.3207 1.04167 10.475 1.125C10.6293 1.20833 10.7551 1.33333 10.8525 1.5L19.8651 17.5C19.9625 17.6667 20.0072 17.8375 19.9991 18.0125C19.9909 18.1875 19.9463 18.35 19.8651 18.5C19.7839 18.65 19.6702 18.7708 19.5241 18.8625C19.3779 18.9542 19.2155 19 19.0369 19H0.963088ZM10 16C10.2761 16 10.5075 15.9042 10.6942 15.7125C10.881 15.5208 10.9743 15.2833 10.9743 15C10.9743 14.7167 10.881 14.4792 10.6942 14.2875C10.5075 14.0958 10.2761 14 10 14C9.72394 14 9.49254 14.0958 9.30579 14.2875C9.11904 14.4792 9.02567 14.7167 9.02567 15C9.02567 15.2833 9.11904 15.5208 9.30579 15.7125C9.49254 15.9042 9.72394 16 10 16ZM10 13C10.2761 13 10.5075 12.9042 10.6942 12.7125C10.881 12.5208 10.9743 12.2833 10.9743 12V9C10.9743 8.71667 10.881 8.47917 10.6942 8.2875C10.5075 8.09583 10.2761 8 10 8C9.72394 8 9.49254 8.09583 9.30579 8.2875C9.11904 8.47917 9.02567 8.71667 9.02567 9V12C9.02567 12.2833 9.11904 12.5208 9.30579 12.7125C9.49254 12.9042 9.72394 13 10 13Z" fill="#D09500"/>
</svg>
