<svg width="30" height="30" viewBox="0 0 30 30" fill="none" xmlns="http://www.w3.org/2000/svg">
<rect width="30" height="30" fill="#003A92"/>
<path d="M25.8025 26.8699C24.2017 20.134 14.8702 16.7648 12.6847 14.3168C11.5611 13.0582 11.8426 11.7211 12.5445 11.0016C13.2984 10.2305 14.7348 10.0781 15.8064 10.7566C16.744 11.3484 18.5682 12.9902 18.9778 13.5961C19.3873 14.2008 19.3825 14.7012 19.6024 15.1078C19.8525 15.5648 20.4179 15.8086 21.237 15.5707C21.9957 15.3516 22.4149 15.0609 22.4149 15.0609C22.4149 15.0609 21.6224 15.0316 21.3082 14.5992C21.3082 14.5992 20.2089 12.2613 19.815 11.3051C21.0751 11.6297 21.8749 12.0047 22.4342 12.3469C22.5031 12.8672 22.2747 13.7637 22.2651 13.8035C22.2905 13.7895 22.6976 13.5563 23.3029 12.9715C23.3331 12.9961 23.3633 13.0195 23.3923 13.0418C23.6061 13.207 23.2123 14.5137 23.2123 14.5137C23.2123 14.5137 23.9516 14.032 24.517 13.3805C25.0063 12.8191 25.4183 12.1066 25.4183 12.1066C25.4183 12.1066 23.8175 11.4504 23.0794 10.3137C22.3388 9.17813 22.9839 7.94531 22.9839 7.94531C22.9839 7.94531 21.7492 7.56094 20.7151 6.11484C19.6277 4.59375 20.0482 2.72461 20.0482 2.72461C19.1638 3.06914 18.3882 4.77539 18.3882 4.77539C18.3882 4.77539 16.1544 3.61875 13.2525 3.97852C10.6345 3.97148 8.2013 2.43164 7.19131 0C7.19131 0 6.40965 3.32695 9.37077 5.42109C9.21009 5.52656 9.04941 5.63789 8.88873 5.75742C7.44381 6.55547 5.60867 6.50859 4.19516 5.54766C4.19516 5.54766 4.27007 6.04688 4.54552 6.64688C4.82097 7.2457 5.29576 7.94649 6.09675 8.34961C6.18253 8.39297 6.2671 8.42813 6.35046 8.45859C6.18374 8.71641 6.0291 8.98359 5.89016 9.25781C5.10126 10.5422 3.5174 11.1914 2 10.807C2 10.807 2.79615 12.2168 4.22416 12.3891C4.55398 12.4289 4.84151 12.3809 5.08797 12.2859C5.07589 12.8695 5.10609 13.4156 5.17374 13.9336C5.1375 15.068 4.34859 16.0746 3.19846 16.3934H3.19725C3.19725 16.3934 4.30631 17.0332 5.33322 16.602C5.53376 16.5176 5.6884 16.4027 5.80801 16.275C6.65128 18.2508 8.18077 19.8445 10.1307 21.6621C10.6538 22.1508 11.2409 22.6734 11.8366 23.2184C17.696 23.5465 22.1322 26.0906 25.8895 30C26.0079 29.1516 26.0948 28.0992 25.8025 26.8699ZM19.6277 8.00508L21.2853 9.60469L18.6395 8.67891L19.6277 8.00508Z" fill="white"/>
<path d="M26.9822 3.04518C26.5106 2.57341 26.1878 1.74958 26.0276 1C25.8671 1.74973 25.5446 2.57373 25.0728 3.0455C24.6012 3.51694 23.7771 3.83973 23.0276 4.00025C23.7774 4.16044 24.6014 4.48304 25.073 4.95482C25.5446 5.42642 25.8674 6.25042 26.0279 7C26.1881 6.25027 26.5108 5.42627 26.9823 4.9545C27.454 4.4829 28.2781 4.16027 29.0276 3.99975C28.278 3.83956 27.454 3.51679 26.9822 3.04518Z" fill="white"/>
<path d="M26.0049 19.0226C25.7693 18.7869 25.6076 18.3747 25.5275 18C25.4473 18.3747 25.2862 18.7869 25.0503 19.0227C24.8144 19.2583 24.4023 19.4198 24.0276 19.5001C24.4024 19.5803 24.8144 19.7415 25.0503 19.9774C25.2862 20.2131 25.4476 20.6253 25.5278 21C25.6079 20.6251 25.7693 20.2131 26.005 19.9773C26.2408 19.7415 26.6529 19.5801 27.0276 19.4998C26.653 19.4197 26.2408 19.2583 26.0049 19.0226Z" fill="white"/>
<path d="M2.52746 24C2.44722 24.3747 2.28607 24.787 2.05024 25.0228C1.81444 25.2584 1.40231 25.4198 1.02759 25.5001C1.40231 25.5805 1.81444 25.7415 2.05024 25.9774C2.28607 26.2132 2.44754 26.6251 2.52779 27C2.60796 26.6251 2.76918 26.2132 3.00509 25.9772C3.24074 25.7415 3.65294 25.5802 4.02759 25.4998C3.65296 25.4197 3.24074 25.2584 3.00494 25.0226C2.76918 24.787 2.60763 24.3747 2.52746 24Z" fill="white"/>
</svg>
